<svg width="16" height="16" viewBox="0 0 16 16" fill="none" xmlns="http://www.w3.org/2000/svg">
<rect width="16" height="16" fill="#D6C29A"/>
<path d="M6.28695 11C6.18715 10.6906 6.0532 10.3026 5.88511 9.83582H3.37164L2.97768 11H1L3.20618 5.08955H6.10573L8.32766 11H6.28695ZM5.43599 8.56581C5.23639 7.99593 5.03153 7.42605 4.82142 6.85617L4.63232 6.327C4.44847 6.8209 4.17795 7.56716 3.82076 8.56581H5.43599Z" fill="#4C2B24"/>
<path d="M11.1155 5C12.1031 5 12.8831 5.12483 13.4557 5.37449C14.0282 5.61872 14.4274 5.96065 14.6533 6.40027C14.8844 6.83446 15 7.36906 15 8.00407C15 8.60651 14.8687 9.13297 14.606 9.58345C14.3434 10.0339 13.9494 10.384 13.4242 10.6336C12.8989 10.8779 12.2528 11 11.4859 11C11.0184 11 10.543 11 10.0597 11C9.57648 11 9.08797 10.9973 8.5942 10.9919C8.63623 9.92266 8.65724 8.92673 8.65724 8.00407C8.65724 7.07056 8.63623 6.09634 8.5942 5.08141C9.21929 5.02714 10.0597 5 11.1155 5ZM11.7065 9.37992C12.195 9.37992 12.5207 9.2578 12.6835 9.01357C12.8463 8.76934 12.9278 8.43284 12.9278 8.00407C12.9278 7.59159 12.8411 7.2578 12.6678 7.00271C12.4997 6.74763 12.1792 6.62008 11.7065 6.62008C11.197 6.62008 10.8161 6.63636 10.564 6.66893V9.37992H11.7065Z" fill="#4C2B24"/>
</svg>
